<svg xmlns="http://www.w3.org/2000/svg" viewBox="0 0 600 600" width="100%" height="100%">
  <defs>
    <radialGradient id="joggerBg" cx="50%" cy="50%" r="50%">
      <stop offset="0%" stop-color="#1e293b"/>
      <stop offset="100%" stop-color="#080a0f"/>
    </radialGradient>
  </defs>
  <rect width="600" height="600" fill="url(#joggerBg)"/>
  
  <!-- Tactical Athletic Jogger Pant -->
  <g transform="translate(300, 290)">
    <!-- Waistband with drawstrings -->
    <rect x="-100" y="-160" width="200" height="28" rx="6" fill="#1e293b" stroke="#00f58d" stroke-width="3"/>
    <!-- Drawstring Cords -->
    <path d="M-15,-135 C-25,-100 -20,-75 -25,-60" fill="none" stroke="#00f58d" stroke-width="3"/>
    <path d="M15,-135 C25,-100 20,-75 25,-60" fill="none" stroke="#00f58d" stroke-width="3"/>
    <circle cx="-25" cy="-58" r="4" fill="#ffffff"/>
    <circle cx="25" cy="-58" r="4" fill="#ffffff"/>
    
    <!-- Pants Body (4-Way Stretch Tapered Fit) -->
    <path d="M-95,-132 L-115,-30 L-70,180 L-35,180 L-10,-40 L10,-40 L35,180 L70,180 L115,-30 L95,-132 Z" fill="#0f172a" stroke="#334155" stroke-width="4"/>
    
    <!-- Ribbed Cuffs at Ankle -->
    <rect x="-70" y="180" width="35" height="18" rx="4" fill="#1e293b" stroke="#00f58d" stroke-width="2"/>
    <rect x="35" y="180" width="35" height="18" rx="4" fill="#1e293b" stroke="#00f58d" stroke-width="2"/>
    
    <!-- Ergonomic Knee Seams (Squat Reinforcement) -->
    <path d="M-95,45 Q-70,60 -55,45" fill="none" stroke="#00e5ff" stroke-width="3"/>
    <path d="M55,45 Q70,60 95,45" fill="none" stroke="#00e5ff" stroke-width="3"/>
    
    <!-- Waterproof Heat-sealed Zipper Pockets -->
    <line x1="-80" y1="-100" x2="-60" y2="-40" stroke="#00f58d" stroke-width="4"/>
    <line x1="80" y1="-100" x2="60" y2="-40" stroke="#00f58d" stroke-width="4"/>
    
    <!-- Brand Emblem on Thigh -->
    <text x="-65" y="10" fill="#ffffff" font-family="'Rajdhani', sans-serif" font-weight="900" font-size="12">KODIAK PRO</text>
  </g>
  
  <text x="30" y="565" fill="#00f58d" font-family="monospace" font-size="13">TACTICAL TRAINING JOGGER // 4-WAY STRETCH // YKK WATERPROOF POCKETS</text>
  <circle cx="530" cy="70" r="32" fill="rgba(0, 245, 141, 0.15)" stroke="#00f58d" stroke-width="2"/>
  <text x="530" y="75" fill="#00f58d" font-family="'Rajdhani', sans-serif" font-weight="bold" font-size="14" text-anchor="middle">PRO</text>
</svg>